<?xml version="1.0" encoding="UTF-8"?>
<svg width="29px" height="39px" viewBox="0 0 29 39" version="1.1" xmlns="http://www.w3.org/2000/svg" xmlns:xlink="http://www.w3.org/1999/xlink">
    <!-- Generator: Sketch 49.3 (51167) - http://www.bohemiancoding.com/sketch -->
    <title>Shape</title>
    <desc>Created with Sketch.</desc>
    <defs></defs>
    <g id="LED" stroke="none" stroke-width="1" fill="none" fill-rule="evenodd">
        <g id="LED---Themes" transform="translate(-38.000000, -112.000000)" fill="#FFFFFF">
            <g id="Candle-flicker" transform="translate(10.000000, 92.000000)">
                <g id="CF-">
                    <g id="ic_whatshot" transform="translate(21.000000, 19.000000)">
                        <g id="Icon-24px">
                            <path d="M25.5133333,9.80041667 C25.5133333,13.49125 23.0945833,16.4833333 19.40375,16.4833333 C15.695,16.4833333 12.9,13.49125 12.9,9.80041667 L12.95375,9.15541667 C9.33458333,13.4554167 7.16666667,19.0275 7.16666667,25.0833333 C7.16666667,33.0025 13.5808333,39.4166667 21.5,39.4166667 C29.4191667,39.4166667 35.8333333,33.0025 35.8333333,25.0833333 C35.8333333,15.42625 31.1929167,6.80833333 24.1875,1.20041667 C25.5133333,7.16666667 25.5133333,5.94833333 25.5133333,9.80041667 Z M20.9804167,34.0416667 C17.79125,34.0416667 15.21125,31.5333333 15.21125,28.4158333 C15.21125,25.5133333 17.0925,23.4708333 20.2458333,22.8258333 C23.4170833,22.1808333 26.6958333,20.6579167 28.5233333,18.2033333 C29.2220833,20.5145833 29.5804167,22.95125 29.5804167,25.4416667 C29.5804167,30.1895833 25.7283333,34.0416667 20.9804167,34.0416667 L20.9804167,34.0416667 Z" id="Shape"></path>
                        </g>
                    </g>
                </g>
            </g>
        </g>
    </g>
</svg>