<?xml version="1.0" encoding="UTF-8"?>
<svg width="36px" height="36px" viewBox="0 0 36 36" version="1.1" xmlns="http://www.w3.org/2000/svg" xmlns:xlink="http://www.w3.org/1999/xlink">
    <!-- Generator: Sketch 49.3 (51167) - http://www.bohemiancoding.com/sketch -->
    <title>Shape</title>
    <desc>Created with Sketch.</desc>
    <defs></defs>
    <g id="LED-v2-20/04/18" stroke="none" stroke-width="1" fill="none" fill-rule="evenodd">
        <g id="LED---Custom-theme-Copy" transform="translate(-279.000000, -436.000000)" fill="#FFFFFF">
            <g id="Sunrise" transform="translate(256.000000, 414.000000)">
                <g id="ic_insert_emoticon" transform="translate(20.000000, 19.000000)">
                    <g id="Icon-24px">
                        <path d="M20.9825,3.5 C11.3225,3.5 3.5,11.34 3.5,21 C3.5,30.66 11.3225,38.5 20.9825,38.5 C30.66,38.5 38.5,30.66 38.5,21 C38.5,11.34 30.66,3.5 20.9825,3.5 L20.9825,3.5 Z M21,35 C13.265,35 7,28.735 7,21 C7,13.265 13.265,7 21,7 C28.735,7 35,13.265 35,21 C35,28.735 28.735,35 21,35 L21,35 Z M27.125,19.25 C28.5775,19.25 29.75,18.0775 29.75,16.625 C29.75,15.1725 28.5775,14 27.125,14 C25.6725,14 24.5,15.1725 24.5,16.625 C24.5,18.0775 25.6725,19.25 27.125,19.25 L27.125,19.25 Z M14.875,19.25 C16.3275,19.25 17.5,18.0775 17.5,16.625 C17.5,15.1725 16.3275,14 14.875,14 C13.4225,14 12.25,15.1725 12.25,16.625 C12.25,18.0775 13.4225,19.25 14.875,19.25 L14.875,19.25 Z M21,30.625 C25.0775,30.625 28.5425,28.07 29.9425,24.5 L12.0575,24.5 C13.4575,28.07 16.9225,30.625 21,30.625 L21,30.625 Z" id="Shape"></path>
                    </g>
                </g>
            </g>
        </g>
    </g>
</svg>