<?xml version="1.0" encoding="UTF-8"?>
<svg width="42px" height="42px" viewBox="0 0 42 42" version="1.1" xmlns="http://www.w3.org/2000/svg" xmlns:xlink="http://www.w3.org/1999/xlink">
    <!-- Generator: Sketch 49.3 (51167) - http://www.bohemiancoding.com/sketch -->
    <title>Shape</title>
    <desc>Created with Sketch.</desc>
    <defs></defs>
    <g id="LED-v2-20/04/18" stroke="none" stroke-width="1" fill="none" fill-rule="evenodd">
        <g id="LED---Custom-theme-Copy" transform="translate(-275.000000, -282.000000)" fill="#FFFFFF">
            <g id="Rainbow" transform="translate(255.000000, 262.000000)">
                <g id="ic_blur_circular">
                    <g transform="translate(20.000000, 20.000000)">
                        <g id="Icon-24px">
                            <path d="M16.45,14.39375 C15.3190625,14.39375 14.39375,15.3190625 14.39375,16.45 C14.39375,17.5809375 15.3190625,18.50625 16.45,18.50625 C17.5809375,18.50625 18.50625,17.5809375 18.50625,16.45 C18.50625,15.3190625 17.5809375,14.39375 16.45,14.39375 L16.45,14.39375 Z M16.45,22.61875 C15.3190625,22.61875 14.39375,23.5440625 14.39375,24.675 C14.39375,25.8059375 15.3190625,26.73125 16.45,26.73125 C17.5809375,26.73125 18.50625,25.8059375 18.50625,24.675 C18.50625,23.5440625 17.5809375,22.61875 16.45,22.61875 L16.45,22.61875 Z M10.28125,15.421875 C9.7055,15.421875 9.253125,15.87425 9.253125,16.45 C9.253125,17.02575 9.7055,17.478125 10.28125,17.478125 C10.857,17.478125 11.309375,17.02575 11.309375,16.45 C11.309375,15.87425 10.857,15.421875 10.28125,15.421875 L10.28125,15.421875 Z M16.45,29.815625 C15.87425,29.815625 15.421875,30.268 15.421875,30.84375 C15.421875,31.4195 15.87425,31.871875 16.45,31.871875 C17.02575,31.871875 17.478125,31.4195 17.478125,30.84375 C17.478125,30.268 17.02575,29.815625 16.45,29.815625 L16.45,29.815625 Z M10.28125,23.646875 C9.7055,23.646875 9.253125,24.09925 9.253125,24.675 C9.253125,25.25075 9.7055,25.703125 10.28125,25.703125 C10.857,25.703125 11.309375,25.25075 11.309375,24.675 C11.309375,24.09925 10.857,23.646875 10.28125,23.646875 L10.28125,23.646875 Z M16.45,11.309375 C17.02575,11.309375 17.478125,10.857 17.478125,10.28125 C17.478125,9.7055 17.02575,9.253125 16.45,9.253125 C15.87425,9.253125 15.421875,9.7055 15.421875,10.28125 C15.421875,10.857 15.87425,11.309375 16.45,11.309375 L16.45,11.309375 Z M24.675,14.39375 C23.5440625,14.39375 22.61875,15.3190625 22.61875,16.45 C22.61875,17.5809375 23.5440625,18.50625 24.675,18.50625 C25.8059375,18.50625 26.73125,17.5809375 26.73125,16.45 C26.73125,15.3190625 25.8059375,14.39375 24.675,14.39375 L24.675,14.39375 Z M24.675,11.309375 C25.25075,11.309375 25.703125,10.857 25.703125,10.28125 C25.703125,9.7055 25.25075,9.253125 24.675,9.253125 C24.09925,9.253125 23.646875,9.7055 23.646875,10.28125 C23.646875,10.857 24.09925,11.309375 24.675,11.309375 L24.675,11.309375 Z M30.84375,23.646875 C30.268,23.646875 29.815625,24.09925 29.815625,24.675 C29.815625,25.25075 30.268,25.703125 30.84375,25.703125 C31.4195,25.703125 31.871875,25.25075 31.871875,24.675 C31.871875,24.09925 31.4195,23.646875 30.84375,23.646875 L30.84375,23.646875 Z M30.84375,15.421875 C30.268,15.421875 29.815625,15.87425 29.815625,16.45 C29.815625,17.02575 30.268,17.478125 30.84375,17.478125 C31.4195,17.478125 31.871875,17.02575 31.871875,16.45 C31.871875,15.87425 31.4195,15.421875 30.84375,15.421875 L30.84375,15.421875 Z M20.5625,0 C9.212,0 0,9.212 0,20.5625 C0,31.913 9.212,41.125 20.5625,41.125 C31.913,41.125 41.125,31.913 41.125,20.5625 C41.125,9.212 31.913,0 20.5625,0 L20.5625,0 Z M20.5625,37.0125 C11.473875,37.0125 4.1125,29.651125 4.1125,20.5625 C4.1125,11.473875 11.473875,4.1125 20.5625,4.1125 C29.651125,4.1125 37.0125,11.473875 37.0125,20.5625 C37.0125,29.651125 29.651125,37.0125 20.5625,37.0125 L20.5625,37.0125 Z M24.675,29.815625 C24.09925,29.815625 23.646875,30.268 23.646875,30.84375 C23.646875,31.4195 24.09925,31.871875 24.675,31.871875 C25.25075,31.871875 25.703125,31.4195 25.703125,30.84375 C25.703125,30.268 25.25075,29.815625 24.675,29.815625 L24.675,29.815625 Z M24.675,22.61875 C23.5440625,22.61875 22.61875,23.5440625 22.61875,24.675 C22.61875,25.8059375 23.5440625,26.73125 24.675,26.73125 C25.8059375,26.73125 26.73125,25.8059375 26.73125,24.675 C26.73125,23.5440625 25.8059375,22.61875 24.675,22.61875 L24.675,22.61875 Z" id="Shape"></path>
                        </g>
                    </g>
                </g>
            </g>
        </g>
    </g>
</svg>