<?xml version="1.0" encoding="UTF-8"?>
<svg width="35px" height="36px" viewBox="0 0 35 36" version="1.1" xmlns="http://www.w3.org/2000/svg" xmlns:xlink="http://www.w3.org/1999/xlink">
    <!-- Generator: Sketch 49.3 (51167) - http://www.bohemiancoding.com/sketch -->
    <title>Combined Shape</title>
    <desc>Created with Sketch.</desc>
    <defs></defs>
    <g id="LED-v2-20/04/18" stroke="none" stroke-width="1" fill="none" fill-rule="evenodd">
        <g id="LED---Custom-theme-Copy" transform="translate(-278.000000, -133.000000)" fill="#FFFFFF">
            <g id="Yoga" transform="translate(255.000000, 110.000000)">
                <g id="Combined-Shape">
                    <path d="M57.3139589,51.2024289 C57.4579479,51.5270863 57.5636623,51.8750513 57.6245659,52.24165 C57.6631639,52.4739845 57.6825613,52.7091034 57.6825613,52.9446223 C57.6825613,55.7396345 55.4167563,58.0054395 52.6217441,58.0054395 L28.0810022,58.0054395 C25.2859901,58.0054395 23.0201851,55.7396345 23.0201851,52.9446223 C23.0201851,52.208165 23.2060511,51.515119 23.5334336,50.909834 C22.7803494,49.9270911 22.8484417,48.5158995 23.7410757,47.610307 L36.2598197,34.9098267 C36.3870082,34.7807918 36.5247116,34.6684113 36.6702152,34.5727049 C36.9565681,34.3046711 37.2720157,34.0673403 37.6113078,33.8659626 C35.7991437,32.8904425 34.5675821,30.9774086 34.5675821,28.7770627 C34.5675821,25.5864791 37.1570736,23 40.3513732,23 C43.5456728,23 46.1351643,25.5864791 46.1351643,28.7770627 C46.1351643,30.9674851 44.9146862,32.8731813 43.1159214,33.8527068 C43.4820558,34.06764 43.8207282,34.3243165 44.125402,34.6161996 C44.2387698,34.6968596 44.3469604,34.7880222 44.4486256,34.8896874 L57.2566866,47.6977484 C58.2213316,48.6623934 58.2404223,50.2145305 57.3139589,51.2024289 Z M51.3394559,48.937594 L45.7971473,43.3952854 L45.7971473,49.8583454 L51.3394559,48.937594 Z M29.5059266,48.9707934 L34.9525391,49.8836272 L34.9525391,43.4451117 L29.5059266,48.9707934 Z"></path>
                </g>
            </g>
        </g>
    </g>
</svg>