<?xml version="1.0" encoding="UTF-8"?>
<svg width="24px" height="24px" viewBox="0 0 24 24" version="1.1" xmlns="http://www.w3.org/2000/svg" xmlns:xlink="http://www.w3.org/1999/xlink">
    <!-- Generator: Sketch 49.3 (51167) - http://www.bohemiancoding.com/sketch -->
    <title>Shape</title>
    <desc>Created with Sketch.</desc>
    <defs></defs>
    <g id="LED" stroke="none" stroke-width="1" fill="none" fill-rule="evenodd">
        <g id="LED-Modes-" transform="translate(-33.000000, -148.000000)" fill="#000000">
            <g id="Simple-pallet" transform="translate(0.000000, 119.000000)">
                <g id="photo-placeholder" transform="translate(33.000000, 29.000000)">
                    <path d="M12,0 C5.33333333,0 0,5.33333333 0,12 C0,18.6666667 5.33333333,24 12,24 C13.0666667,24 14,23.0666667 14,22 C14,21.4666667 13.8666667,21.0666667 13.4666667,20.6666667 C13.2,20.2666667 12.9333333,19.8666667 12.9333333,19.3333333 C12.9333333,18.2666667 13.866719,17.3333333 14.9333333,17.3333333 L17.3333333,17.3333333 C21.0666667,17.3333333 24,14.4 24,10.6666667 C24,4.8 18.6666667,0 12,0 Z M4.2,12 C3.24,12 2.4,11.16 2.4,10.2 C2.4,9.24 3.24,8.4 4.2,8.4 C5.16,8.4 6,9.24 6,10.2 C6,11.16 5.16,12 4.2,12 Z M9,6 C8.04,6 7.2,5.16 7.2,4.2 C7.2,3.24 8.04,2.4 9,2.4 C9.96,2.4 10.8,3.24 10.8,4.2 C10.8,5.16 9.96,6 9,6 Z M15,6 C14.04,6 13.2,5.16 13.2,4.2 C13.2,3.24 14.04,2.4 15,2.4 C15.96,2.4 16.8,3.24 16.8,4.2 C16.8,5.16 15.96,6 15,6 Z M18.6,12 C17.64,12 16.8,11.16 16.8,10.2 C16.8,9.24 17.64,8.4 18.6,8.4 C19.56,8.4 20.4,9.24 20.4,10.2 C20.4,11.16 19.56,12 18.6,12 Z" id="Shape"></path>
                </g>
            </g>
        </g>
    </g>
</svg>