<?xml version="1.0" encoding="UTF-8"?>
<svg width="30px" height="36px" viewBox="0 0 30 36" version="1.1" xmlns="http://www.w3.org/2000/svg" xmlns:xlink="http://www.w3.org/1999/xlink">
    <!-- Generator: Sketch 49.3 (51167) - http://www.bohemiancoding.com/sketch -->
    <title>Combined Shape</title>
    <desc>Created with Sketch.</desc>
    <defs></defs>
    <g id="LED-v2-20/04/18" stroke="none" stroke-width="1" fill="none" fill-rule="evenodd">
        <g id="LED---Custom-theme-Copy" transform="translate(-165.000000, -436.000000)" fill="#FFFFFF">
            <g id="Police" transform="translate(140.000000, 414.000000)">
                <g id="Combined-Shape">
                    <path d="M38.150417,22 L41.1851286,22 L41.1851286,27.0578527 L38.150417,27.0578527 L38.150417,22 Z M52.8541348,25.0347116 L55,27.1805768 L51.4235581,30.7570187 L49.2776929,28.6111535 L52.8541348,25.0347116 Z M27.1458652,25.0347116 L30.7223071,28.6111535 L28.5764419,30.7570187 L25,27.1805768 L27.1458652,25.0347116 Z M39.6677728,30.0925643 C46.6512101,30.0925643 52.3124045,35.7537588 52.3124045,42.737196 L52.3124045,51.3355456 L27.0231411,51.3355456 L27.0231411,42.737196 C27.0231411,35.7537588 32.6843355,30.0925643 39.6677728,30.0925643 Z M27.0231411,53.3586867 L52.3124045,53.3586867 L52.3124045,57.4049688 L27.0231411,57.4049688 L27.0231411,53.3586867 Z"></path>
                </g>
            </g>
        </g>
    </g>
</svg>