<?xml version="1.0" encoding="UTF-8"?>
<svg width="36px" height="35px" viewBox="0 0 36 35" version="1.1" xmlns="http://www.w3.org/2000/svg" xmlns:xlink="http://www.w3.org/1999/xlink">
    <!-- Generator: Sketch 49.3 (51167) - http://www.bohemiancoding.com/sketch -->
    <title>Shape</title>
    <desc>Created with Sketch.</desc>
    <defs></defs>
    <g id="LED-v2-20/04/18" stroke="none" stroke-width="1" fill="none" fill-rule="evenodd">
        <g id="LED---Custom-theme-Copy" transform="translate(-47.000000, -286.000000)" fill="#FFFFFF">
            <g id="SOS" transform="translate(24.000000, 262.000000)">
                <g id="SOS-Active">
                    <g id="ic_notifications_active" transform="translate(20.000000, 20.000000)">
                        <g id="Icon-24px">
                            <path d="M12.8625,6.965 L10.36,4.4625 C6.16,7.665 3.395,12.6 3.15,18.2 L6.65,18.2 C6.9125,13.5625 9.2925,9.5025 12.8625,6.965 L12.8625,6.965 Z M34.545,18.2 L38.045,18.2 C37.7825,12.6 35.0175,7.665 30.835,4.4625 L28.35,6.965 C31.885,9.5025 34.2825,13.5625 34.545,18.2 L34.545,18.2 Z M31.0975,19.075 C31.0975,13.7025 28.2275,9.205 23.2225,8.015 L23.2225,6.825 C23.2225,5.3725 22.05,4.2 20.5975,4.2 C19.145,4.2 17.9725,5.3725 17.9725,6.825 L17.9725,8.015 C12.95,9.205 10.0975,13.685 10.0975,19.075 L10.0975,27.825 L6.5975,31.325 L6.5975,33.075 L34.5975,33.075 L34.5975,31.325 L31.0975,27.825 L31.0975,19.075 L31.0975,19.075 Z M20.5975,38.325 C20.8425,38.325 21.07,38.3075 21.2975,38.255 C22.435,38.01 23.3625,37.24 23.8175,36.19 C23.9925,35.77 24.08,35.315 24.08,34.825 L17.08,34.825 C17.0975,36.75 18.655,38.325 20.5975,38.325 L20.5975,38.325 Z" id="Shape"></path>
                        </g>
                    </g>
                </g>
            </g>
        </g>
    </g>
</svg>